<svg width="20" height="20" viewBox="0 0 20 20" fill="none" xmlns="http://www.w3.org/2000/svg">
    <path
        d="M0.681252 18.0273L6.76797 11.9406C5.82344 10.7195 5.3125 9.22656 5.3125 7.65625C5.3125 5.77656 6.04609 4.01406 7.37266 2.68516C8.69922 1.35625 10.4664 0.625 12.3438 0.625C14.2211 0.625 15.9883 1.35859 17.3148 2.68516C18.6438 4.01172 19.375 5.77656 19.375 7.65625C19.375 9.53359 18.6414 11.3008 17.3148 12.6273C15.9883 13.9562 14.2234 14.6875 12.3438 14.6875C10.7734 14.6875 9.28281 14.1766 8.06172 13.2344L1.975 19.3187C1.95715 19.3366 1.93596 19.3508 1.91264 19.3604C1.88931 19.3701 1.86431 19.3751 1.83906 19.3751C1.81381 19.3751 1.78881 19.3701 1.76549 19.3604C1.74216 19.3508 1.72097 19.3366 1.70312 19.3187L0.681252 18.2992C0.663393 18.2814 0.649225 18.2602 0.639561 18.2369C0.629894 18.2135 0.624918 18.1885 0.624918 18.1633C0.624918 18.138 0.629894 18.113 0.639561 18.0897C0.649225 18.0664 0.663393 18.0452 0.681252 18.0273ZM8.63125 11.3688C9.625 12.3602 10.9422 12.9062 12.3438 12.9062C13.7453 12.9062 15.0625 12.3602 16.0562 11.3688C17.0477 10.375 17.5938 9.05781 17.5938 7.65625C17.5938 6.25469 17.0477 4.93516 16.0562 3.94375C15.0625 2.95234 13.7453 2.40625 12.3438 2.40625C10.9422 2.40625 9.62266 2.95 8.63125 3.94375C7.63984 4.9375 7.09375 6.25469 7.09375 7.65625C7.09375 9.05781 7.63984 10.3773 8.63125 11.3688Z"
        fill="black" />
</svg>